<svg width="48" height="41" viewBox="0 0 48 41" fill="none" xmlns="http://www.w3.org/2000/svg">
<path d="M42.5886 8.52529H37.519V3.45567C37.519 2.55931 37.1629 1.69966 36.5291 1.06583C35.8953 0.432007 35.0356 0.0759277 34.1392 0.0759277H13.8608C12.9644 0.0759277 12.1047 0.432007 11.4709 1.06583C10.8371 1.69966 10.481 2.55931 10.481 3.45567V8.52529H5.41139C4.06685 8.52529 2.77737 9.05941 1.82663 10.0102C0.875893 10.9609 0.341774 12.2504 0.341774 13.5949V37.2531C0.341774 38.1495 0.697853 39.0092 1.33168 39.643C1.9655 40.2768 2.82516 40.6329 3.72152 40.6329H44.2785C45.1748 40.6329 46.0345 40.2768 46.6683 39.643C47.3021 39.0092 47.6582 38.1495 47.6582 37.2531V13.5949C47.6582 12.2504 47.1241 10.9609 46.1734 10.0102C45.2226 9.05941 43.9332 8.52529 42.5886 8.52529ZM13.8608 3.45567H34.1392V8.52529H13.8608V3.45567ZM44.2785 37.2531H3.72152V22.0443H17.2405V30.4936H30.7595V22.0443H44.2785V37.2531ZM20.6203 22.0443H27.3797V27.1139H20.6203V22.0443ZM3.72152 18.6645V13.5949C3.72152 13.1467 3.89956 12.7169 4.21647 12.4C4.53339 12.0831 4.96321 11.905 5.41139 11.905H42.5886C43.0368 11.905 43.4666 12.0831 43.7835 12.4C44.1004 12.7169 44.2785 13.1467 44.2785 13.5949V18.6645H3.72152Z" fill="#0D5C63"/>
</svg>
